<svg xmlns="http://www.w3.org/2000/svg" width="22" height="22" viewBox="0 0 22 22">
  <path fill="#00D3EF" d="M13.0625,0 L8.9375,0 C4.00146484,0 0,4.00146484 0,8.9375 C0,12.1360078 1.69318359,14.9208984 4.21901562,16.5 L4.125,16.5 L4.125,22 L10.3125,17.875 L13.0625,17.875 C17.9985352,17.875 22,13.8735352 22,8.9375 C22,4.00146484 17.9985352,0 13.0625,0 Z M13.0625,15.125 L10.3125,15.125 L6.875,17.1875 L6.875,14.7463594 C4.47682812,13.8936875 2.75,11.6270859 2.75,8.9375 C2.75,5.52015234 5.52015234,2.75 8.9375,2.75 L13.0625,2.75 C16.4798047,2.75 19.25,5.52015234 19.25,8.9375 C19.25,12.3548477 16.4798477,15.125 13.0625,15.125 Z"/>
</svg>
